<svg width="19" height="21" viewBox="0 0 19 21" fill="none" xmlns="http://www.w3.org/2000/svg">
<path fill-rule="evenodd" clip-rule="evenodd" d="M9.5 0C4.25501 0 0 4.5451 0 10.1477C0 15.7502 4.25501 20.2953 9.5 20.2953C14.745 20.2953 19 15.7502 19 10.1477C19 4.5451 14.745 0 9.5 0ZM9.5 18.2618C5.31162 18.2618 1.90381 14.6216 1.90381 10.1477C1.90381 5.67373 5.31162 2.03357 9.5 2.03357C13.6884 2.03357 17.0962 5.67373 17.0962 10.1477C17.0962 14.6216 13.6884 18.2618 9.5 18.2618ZM5.93042 11.6729L10.214 3.03003V8.62247H13.0697L8.9194 17.2653V11.6729H5.93042Z" fill="#FFD400"/>
</svg>
