<svg width="20" height="20" viewBox="0 0 20 20" fill="none" xmlns="http://www.w3.org/2000/svg">
<path fill-rule="evenodd" clip-rule="evenodd" d="M10 0V4.27271H20V19.2272H0V0H10ZM2 17.0908H4V14.9545H2V17.0908ZM4 12.8181H2V10.6818H4V12.8181ZM2 8.54541H4V6.409H2V8.54541ZM4 4.27271H2V2.13629H4V4.27271ZM6 17.0908H8V14.9545H6V17.0908ZM8 12.8181H6V10.6818H8V12.8181ZM6 8.54541H8V6.409H6V8.54541ZM8 4.27271H6V2.13629H8V4.27271ZM18 17.0908V6.409H10V8.54536H12V10.6817H10V12.8181H12V14.9545H10V17.0908H18ZM16 8.54541H14V10.6818H16V8.54541ZM14 12.8181H16V14.9545H14V12.8181Z" fill="#FFD400"/>
</svg>
