<?xml version="1.0" encoding="UTF-8" standalone="no"?>
<!-- Created with Inkscape (http://www.inkscape.org/) -->

<svg
   version="1.1"
   id="svg2"
   xml:space="preserve"
   width="569.03998"
   height="419.65332"
   viewBox="0 0 569.03998 419.65332"
   sodipodi:docname="final logo curved-01.eps"
   xmlns:inkscape="http://www.inkscape.org/namespaces/inkscape"
   xmlns:sodipodi="http://sodipodi.sourceforge.net/DTD/sodipodi-0.dtd"
   xmlns="http://www.w3.org/2000/svg"
   xmlns:svg="http://www.w3.org/2000/svg"><defs
     id="defs6"><clipPath
       clipPathUnits="userSpaceOnUse"
       id="clipPath18"><path
         d="M 2195.77,2.83203 H 4267.81 V 3037.82 H 2195.77 Z"
         id="path16" /></clipPath><clipPath
       clipPathUnits="userSpaceOnUse"
       id="clipPath28"><path
         d="M 0,0 H 4268 V 3147 H 0 Z"
         id="path26" /></clipPath><clipPath
       clipPathUnits="userSpaceOnUse"
       id="clipPath34"><path
         d="M 2137.13,2.83203 H 0 V 3147.44 h 2137.13 z"
         id="path32" /></clipPath></defs><sodipodi:namedview
     id="namedview4"
     pagecolor="#ffffff"
     bordercolor="#666666"
     borderopacity="1.0"
     inkscape:pageshadow="2"
     inkscape:pageopacity="0.0"
     inkscape:pagecheckerboard="0" /><g
     id="g8"
     inkscape:groupmode="layer"
     inkscape:label="ink_ext_XXXXXX"
     transform="matrix(1.3333333,0,0,-1.3333333,0,419.65333)"><g
       id="g10"
       transform="scale(0.1)"><g
         id="g12"><g
           id="g14"
           clip-path="url(#clipPath18)"><path
             d="m 1619.12,3362.46 c -70.78,0 -147.71,-47.6 -147.71,-118.39 L 1285.9,1450.4 c 0,-70.79 57.38,-128.16 128.17,-128.16 h 760.8 V 128.461 c 0,-167.2618 89.32,-128.171937 188.17,-128.171937 h 1317.23 c 70.79,0 128.17,57.390637 128.17,128.171937 V 1322.24 h 300.96 c 70.78,0 128.17,57.37 128.17,128.16 l 0.91,309.17 -2619.36,1602.89"
             style="fill:#d6a13c;fill-opacity:1;fill-rule:nonzero;stroke:none"
             id="path20" /></g></g><g
         id="g22"><g
           id="g24"
           clip-path="url(#clipPath28)"><g
             id="g30"
             clip-path="url(#clipPath34)"><path
               d="m 4490.88,1806.8 c -288.64,151.41 -577.28,302.82 -865.91,454.23 -421.45,221.07 -842.9,442.15 -1264.35,663.22 -50.07,26.27 -100.14,52.53 -150.21,78.8 -26.32,13.8 -38.02,22.39 -68.59,7.36 -104.41,-51.32 -203.55,-119.22 -303.87,-177.98 C 1404.56,2578.6 971.176,2324.76 537.785,2070.93 389.488,1984.07 241.195,1897.22 92.8984,1810.36 76.418,1800.71 43.5039,1789.28 36.8281,1771 c -4.0664,-11.15 0,-30.95 0,-42.73 0,-29.63 0,-59.27 0,-88.9 0,-63.92 0,-127.84 0,-191.75 0,-32.82 0,-65.65 0,-98.48 0,-2.64 6.5938,-3.32 7.7227,-3.34 84.0622,-0.97 168.1252,-1.93 252.1792,-2.9 45.352,-0.53 90.7,-1.09 136.051,-1.57 4.551,-0.04 14.379,1.78 18.571,-0.21 8.621,-4.09 -2.883,8.29 0.39,-1.34 9.981,-29.37 0,-79.86 0,-110.42 0,-77.36 0,-154.7 0,-232.04 0,-438.789 0,-877.582 0,-1316.371 0,-117.008 0,-234.027 0,-351.051 0,-2.617 6.59,-3.339 7.719,-3.339 118.687,0 237.375,0 356.066,0 285.053,0 570.113,0 855.163,0 344.91,0 689.82,0 1034.73,0 298.24,0 596.48,0 894.72,0 144.56,0 290.74,-6.348 435.2,0 2.04,0.101 4.12,0 6.17,0 8.16,0 35.74,3.019 35.74,14.992 0,225.609 0,451.219 0,676.8279 0,359.3511 0,718.6911 0,1078.0511 0,82.15 0,164.3 0,246.46 -11.91,-5 -23.82,-9.99 -35.74,-14.99 138.3,-0.61 276.6,-1.24 414.9,-1.85 8.17,-0.04 35.76,3.03 35.76,14.99 0,154.68 0,309.38 0,464.07 0,7.61 -43.47,1.29 -43.47,-11.64 0,-154.7 0,-309.39 0,-464.08 11.91,5 23.83,9.99 35.75,14.99 -138.31,0.61 -276.61,1.24 -414.91,1.85 -8.16,0.04 -35.75,-3.04 -35.75,-14.99 0,-225.6 0,-451.209 0,-676.818 0,-359.352 0,-718.7033 0,-1078.043 0,-82.16 0,-164.32 0,-246.481 11.92,5 23.84,10 35.75,14.993 -265.22,0 -530.42,0 -795.64,0 -525.05,0 -1050.11,0 -1575.18,0 -379.05,0 -758.095,0 -1137.15,0 -15.168,0 -59.664,-8.262 -73.16,0 11.617,-7.11 5.254,3.949 6.797,13.949 3.199,20.738 0,44.531 0,65.5 0,201.769 0,403.558 0,605.3397 0,433.7503 0,867.5003 0,1301.2603 0,8.39 0,16.78 0,25.16 0,2.64 -6.59,3.34 -7.719,3.34 -115.855,0 -231.765,2.58 -347.617,3.92 -16.68,0.19 -46.703,-5.45 -62.4296,0.71 -9.9922,3.92 3.9531,-8.64 2.8555,-0.56 -0.8633,6.36 0,13.7 0,20.1 0,66.48 0,132.94 0,199.41 0,37.43 0,74.86 0,112.29 0,23.69 4.5742,52.53 0,75.92 -2.4531,12.55 1.6601,13.79 -3.336,8.36 2.7696,3 9.4336,5.83 13.0782,7.65 56.8049,28.52 110.8589,64.93 165.6759,97.04 493.57,289.08 987.135,578.16 1480.705,867.24 147.04,86.13 294.08,172.25 441.13,258.37 -12.4,-2.2 -24.78,-4.39 -37.18,-6.58 260.3,-136.54 520.59,-273.08 780.88,-409.62 414.68,-217.52 829.34,-435.04 1244.02,-652.56 94.9,-49.79 189.81,-99.57 284.71,-149.35 11.32,-5.93 46.82,11.92 40.9,15.02"
               style="fill:#d6a13c;fill-opacity:1;fill-rule:nonzero;stroke:none"
               id="path36" /></g></g></g><path
         d="m 1237.46,17.8086 c -73.65,0 -147.32,0 -220.96,0 V 357.121 H 755.676 V 17.8086 c -73.656,0 -148.52,0 -220.961,0 V 863.051 c 72.441,0 147.305,0 220.961,0 V 556.352 H 1016.5 v 306.699 c 73.64,0 147.31,0 220.96,0 V 17.8086"
         style="fill:#0180ab;fill-opacity:1;fill-rule:nonzero;stroke:none"
         id="path38" /><path
         d="m 1926.95,439.219 c 0,304.293 -423.83,304.293 -423.83,0 0,-306.699 423.83,-306.699 423.83,0 z m -646,0 c 0,584.411 866.97,584.411 866.97,0 0,-585.629 -866.97,-585.629 -866.97,0"
         style="fill:#0180ab;fill-opacity:1;fill-rule:nonzero;stroke:none"
         id="path40" /><path
         d="m 3047.19,865.461 h 77.27 V 17.8086 c -73.65,0 -147.3,0 -220.96,0 V 394.539 L 2723.58,206.18 h -24.15 l -178.7,188.359 V 17.8086 c -73.66,0 -147.32,0 -220.97,0 V 865.461 h 79.7 l 330.84,-367.07 336.89,367.07"
         style="fill:#0180ab;fill-opacity:1;fill-rule:nonzero;stroke:none"
         id="path42" /><path
         d="m 3746.34,669.852 c -125.59,0 -188.37,0 -312.74,0 V 550.309 h 287.38 c 0,-64 0,-127.989 0,-191.989 H 3433.6 c 0,-49.511 0,-97.8 0,-148.519 124.37,0 196.82,0 323.6,0 0,-62.789 0,-127.9924 0,-191.9924 -198.03,0 -342.92,0 -538.53,0 0,282.5504 0,565.1014 0,845.2424 195.61,0 329.64,0 527.67,0 0,-62.789 0,-128 0,-193.199"
         style="fill:#0180ab;fill-opacity:1;fill-rule:nonzero;stroke:none"
         id="path44" /><path
         d="m 825.754,1440.62 c -36.953,0.88 -76.543,0 -112.617,0 0,-50.16 0,-125.82 0,-175.97 h 112.617 c 86.226,0 91.504,175.09 0,175.97 z M 555.652,965.512 c 0,204.998 0,409.998 0,615.868 88.864,0 180.364,0 270.981,0 294.747,-0.88 294.747,-458.38 0,-458.38 H 713.137 V 965.512 c -52.785,0 -105.574,0 -157.485,0"
         style="fill:#0180ab;fill-opacity:1;fill-rule:nonzero;stroke:none"
         id="path46" /><path
         d="m 1435.45,1440.62 c -36.95,0.88 -75.66,0 -112.61,0 0,-50.16 0,-104.71 0,-153.98 h 112.61 c 85.34,0 89.74,153.1 0,153.98 z M 1686.2,988.379 v -22.867 h -175.96 l -105.58,181.238 h -81.82 V 965.512 c -52.79,0 -106.46,0 -157.49,0 0,204.998 0,409.998 0,615.868 88.86,0 180.36,0 270.1,0 241.96,-0.88 285.94,-292.1 130.22,-397.68 L 1686.2,988.379"
         style="fill:#0180ab;fill-opacity:1;fill-rule:nonzero;stroke:none"
         id="path48" /><path
         d="m 2165.69,1440.62 c -91.5,0 -137.25,0 -227.87,0 v -87.11 h 209.4 c 0,-46.63 0,-93.26 0,-139.9 h -209.4 c 0,-36.06 0,-71.26 0,-108.21 90.62,0 143.41,0 235.79,0 0,-45.75 0,-93.26 0,-139.888 -144.29,0 -249.87,0 -392.4,0 0,205.878 0,411.758 0,615.868 142.53,0 240.19,0 384.48,0 0,-45.74 0,-93.25 0,-140.76"
         style="fill:#0180ab;fill-opacity:1;fill-rule:nonzero;stroke:none"
         id="path50" /><path
         d="M 3461.8,1418.62 H 3215.55 V 2008 h 246.25 z"
         style="fill:none;stroke:#ffffff;stroke-width:10;stroke-linecap:butt;stroke-linejoin:miter;stroke-miterlimit:10;stroke-dasharray:none;stroke-opacity:1"
         id="path52" /><path
         d="M 3187.14,1418.62 H 2940.9 V 2008 h 246.24 z"
         style="fill:none;stroke:#ffffff;stroke-width:10;stroke-linecap:butt;stroke-linejoin:miter;stroke-miterlimit:10;stroke-dasharray:none;stroke-opacity:1"
         id="path54" /><path
         d="m 2944.54,1413.89 v 303.06 h 517.26 v -303.06 z"
         style="fill:none;stroke:#ffffff;stroke-width:10;stroke-linecap:butt;stroke-linejoin:miter;stroke-miterlimit:10;stroke-dasharray:none;stroke-opacity:1"
         id="path56" /><path
         d="m 2944.54,1727.52 v 283.03 h 517.26 v -283.03 z"
         style="fill:none;stroke:#ffffff;stroke-width:10;stroke-linecap:butt;stroke-linejoin:miter;stroke-miterlimit:10;stroke-dasharray:none;stroke-opacity:1"
         id="path58" /><path
         d="m 3126.15,964.301 c 0,0.738 -0.11,1.449 -0.12,2.199"
         style="fill:none;stroke:#ffffff;stroke-width:10;stroke-linecap:butt;stroke-linejoin:miter;stroke-miterlimit:10;stroke-dasharray:none;stroke-opacity:1"
         id="path60" /><path
         d="M 2273.87,10.6211 V 968.43 c 2.22,167.73 138.71,303.07 306.98,303.07 h 238.1 c 168.26,0 304.76,-135.34 306.99,-303.07 V 18.8398"
         style="fill:none;stroke:#ffffff;stroke-width:10;stroke-linecap:butt;stroke-linejoin:miter;stroke-miterlimit:10;stroke-dasharray:none;stroke-opacity:1"
         id="path62" /><path
         d="m 3047.27,458.941 h -12.11 c -21.5,0 -39.09,17.579 -39.09,39.09 v 12.11 c 0,21.5 17.59,39.089 39.09,39.089 h 12.11 c 21.51,0 39.1,-17.589 39.1,-39.089 v -12.11 c 0,-21.511 -17.59,-39.09 -39.1,-39.09"
         style="fill:#f9a72b;fill-opacity:1;fill-rule:nonzero;stroke:none"
         id="path64" /></g></g></svg>
